<svg viewBox="0 0 200 37" fill="none" xmlns="http://www.w3.org/2000/svg">
<g clip-path="url(#clip0)">
<path d="M77.2163 18.0976C77.2163 11.7564 81.8179 7.43546 87.6821 7.43546C90.9649 7.43546 93.434 8.89449 95.2017 11.083L93.7146 12.037C92.4239 10.2413 90.1512 9.03478 87.6821 9.03478C82.828 9.03478 79.0962 12.7104 79.0962 18.0976C79.0962 23.4287 82.828 27.1605 87.6821 27.1605C90.1512 27.1605 92.4239 25.954 93.7146 24.1582L95.2017 25.0842C93.3779 27.3288 90.9649 28.7598 87.6821 28.7598C81.8179 28.7879 77.2163 24.4388 77.2163 18.0976Z" fill="black"/>
<path d="M117.059 28.4231L111.279 19.8934H106.734V28.4231H104.966V7.77216H112.682C116.246 7.77216 118.967 10.0168 118.967 13.8047C118.967 17.5365 116.302 19.6128 113.244 19.7531L119.22 28.4231H117.059ZM117.087 13.8047C117.087 11.1953 115.236 9.37148 112.514 9.37148H106.734V18.2379H112.514C115.236 18.266 117.087 16.4141 117.087 13.8047Z" fill="black"/>
<path d="M128.76 18.0976C128.76 12.0651 132.716 7.43546 138.777 7.43546C144.809 7.43546 148.793 12.0651 148.793 18.0976C148.793 24.1302 144.809 28.7598 138.777 28.7598C132.716 28.7879 128.76 24.1302 128.76 18.0976ZM146.942 18.0976C146.942 12.8507 143.715 9.03478 138.777 9.03478C133.754 9.03478 130.612 12.8507 130.612 18.0976C130.612 23.2884 133.754 27.1605 138.777 27.1605C143.715 27.1605 146.942 23.3165 146.942 18.0976Z" fill="black"/>
<path d="M159.343 28.4231V7.77216H165.937C172.334 7.77216 176.375 12.4298 176.375 18.0976C176.375 23.8215 172.362 28.3951 165.937 28.3951H159.343V28.4231ZM174.495 18.0976C174.495 13.2716 171.408 9.37148 165.937 9.37148H161.111V26.7957H165.937C171.38 26.7957 174.495 22.9237 174.495 18.0976Z" fill="black"/>
<path d="M186.925 28.4231V7.77216H200V9.37148H188.692V17.0034H199.804V18.6027H188.692V26.7677H200V28.367H186.925V28.4231Z" fill="black"/>
<path d="M61.5318 7.77216L69.9774 28.3951H67.9291L60.4375 9.73624L52.9179 28.3951H50.8696L59.3152 7.77216H61.5318Z" fill="black"/>
<path d="M24.3825 24.2424H17.4521C17.396 24.2424 17.3679 24.2144 17.3399 24.1863C17.3118 24.1582 17.3118 24.1021 17.3399 24.046L20.7911 18.0415C20.8472 17.9573 20.9875 17.9573 21.0155 18.0415L24.4667 24.018C24.4948 24.046 24.4948 24.0741 24.4948 24.1021C24.5228 24.1863 24.4667 24.2424 24.3825 24.2424ZM17.6766 23.9618H24.13L20.9314 18.3782L17.6766 23.9618Z" fill="url(#paint0_linear)"/>
<path d="M17.4521 24.2424C17.396 24.2424 17.368 24.2144 17.3399 24.1863L13.8887 18.1818C13.8607 18.1538 13.8607 18.0976 13.8887 18.0415C13.9168 18.0135 13.9448 17.9854 14.001 17.9854H20.9314C20.9875 17.9854 21.0155 18.0135 21.0436 18.0415C21.0717 18.0696 21.0717 18.1257 21.0436 18.1818L17.5644 24.1583C17.5644 24.2144 17.5082 24.2424 17.4521 24.2424ZM14.2254 18.2379L17.4521 23.8216L20.6788 18.2379H14.2254Z" fill="url(#paint1_linear)"/>
<path d="M24.3823 24.2424C24.3262 24.2424 24.2981 24.2144 24.2701 24.1863L20.8189 18.1818C20.7908 18.1538 20.7908 18.0976 20.8189 18.0415C20.847 18.0135 20.875 17.9854 20.9311 17.9854H27.8615C27.9177 17.9854 27.9457 18.0135 27.9738 18.0415C28.0018 18.0696 28.0018 18.1257 27.9738 18.1818L24.4945 24.1583C24.4665 24.2144 24.4384 24.2424 24.3823 24.2424ZM21.1556 18.2379L24.3823 23.8216L27.609 18.2379H21.1556Z" fill="url(#paint2_linear)"/>
<path d="M24.3547 36.2233H17.4243C17.3682 36.2233 17.3401 36.1953 17.3121 36.1672C17.284 36.1392 17.284 36.0831 17.3121 36.0269L20.7913 30.0225C20.8474 29.9383 20.9877 29.9383 21.0158 30.0225L24.4669 35.9989C24.495 36.0269 24.495 36.055 24.495 36.0831C24.495 36.1672 24.4389 36.2233 24.3547 36.2233ZM17.6768 35.9428H24.1302L20.9035 30.3592L17.6768 35.9428Z" fill="url(#paint3_linear)"/>
<path d="M17.4243 36.2234C17.3682 36.2234 17.3401 36.1953 17.3121 36.1672L13.8609 30.1627C13.8328 30.1347 13.8328 30.0786 13.8609 30.0225C13.8889 29.9944 13.917 29.9663 13.9731 29.9663H20.9035C20.9596 29.9663 20.9877 29.9944 21.0158 30.0225C21.0438 30.0505 21.0438 30.1066 21.0158 30.1627L17.5646 36.1672C17.5365 36.1953 17.4804 36.2234 17.4243 36.2234ZM14.1976 30.2189L17.4243 35.8025L20.651 30.2189H14.1976Z" fill="url(#paint4_linear)"/>
<path d="M17.4243 36.2233H10.5219C10.4658 36.2233 10.4378 36.1953 10.4097 36.1672C10.3817 36.1392 10.3817 36.0831 10.4097 36.0269L13.8609 30.0225C13.917 29.9383 14.0292 29.9383 14.0854 30.0225L17.5365 35.9989C17.5646 36.0269 17.5646 36.055 17.5646 36.0831C17.5646 36.1672 17.5085 36.2233 17.4243 36.2233ZM10.7464 35.9428H17.1998L13.9731 30.3592L10.7464 35.9428Z" fill="url(#paint5_linear)"/>
<path d="M10.5217 36.2233H3.59129C3.53517 36.2233 3.50711 36.1953 3.47905 36.1672C3.45099 36.1392 3.45099 36.0831 3.47905 36.0269L6.93023 30.0225C6.98635 29.9383 7.12664 29.9383 7.1547 30.0225L10.6059 35.9989C10.6339 36.0269 10.6339 36.055 10.6339 36.0831C10.6339 36.1672 10.5778 36.2233 10.5217 36.2233ZM3.81575 35.9428H10.2692L7.04246 30.3592L3.81575 35.9428Z" fill="url(#paint6_linear)"/>
<path d="M10.522 36.2234C10.4658 36.2234 10.4378 36.1953 10.4097 36.1672L6.95854 30.1627C6.93049 30.1347 6.93049 30.0786 6.95854 30.0225C6.9866 29.9944 7.01466 29.9663 7.07078 29.9663H14.0012C14.0573 29.9663 14.0854 29.9944 14.1134 30.0225C14.1415 30.0505 14.1415 30.1066 14.1134 30.1627L10.6622 36.1672C10.6061 36.1953 10.55 36.2234 10.522 36.2234ZM7.26719 30.2189L10.4939 35.8025L13.7487 30.2189H7.26719Z" fill="url(#paint7_linear)"/>
<path d="M31.2849 36.2233H24.3545C24.2984 36.2233 24.2703 36.1953 24.2422 36.1672C24.2142 36.1392 24.2142 36.0831 24.2422 36.0269L27.6934 30.0225C27.7495 29.9383 27.8618 29.9383 27.9179 30.0225L31.3691 35.9989C31.3971 36.0269 31.3971 36.055 31.3971 36.0831C31.4252 36.1672 31.341 36.2233 31.2849 36.2233ZM24.5789 35.9428H31.0324L27.8056 30.3592L24.5789 35.9428Z" fill="url(#paint8_linear)"/>
<path d="M24.3545 36.2234C24.2984 36.2234 24.2703 36.1953 24.2422 36.1672L20.7911 30.1627C20.763 30.1347 20.763 30.0786 20.7911 30.0225C20.8191 29.9944 20.8472 29.9663 20.9033 29.9663H27.8337C27.8898 29.9663 27.9179 29.9944 27.9459 30.0225C27.974 30.0505 27.974 30.1066 27.9459 30.1627L24.4948 36.1672C24.4387 36.1953 24.4106 36.2234 24.3545 36.2234ZM21.1278 30.2189L24.3545 35.8025L27.5812 30.2189H21.1278Z" fill="url(#paint9_linear)"/>
<path d="M38.2438 36.2234H31.2573C31.2012 36.2234 31.1731 36.1953 31.1451 36.1672C31.117 36.1392 31.117 36.0831 31.1451 36.0269L34.5962 30.0225C34.6243 29.9944 34.6524 29.9663 34.7085 29.9663C34.7646 29.9663 34.7927 29.9944 34.8207 30.0225L38.328 35.9989C38.3561 36.0269 38.3561 36.055 38.3561 36.0831C38.3841 36.1672 38.328 36.2234 38.2438 36.2234ZM31.5098 35.9428H38.0194L34.7365 30.3311L31.5098 35.9428Z" fill="url(#paint10_linear)"/>
<path d="M31.2851 36.2234C31.229 36.2234 31.201 36.1953 31.1729 36.1672L27.7217 30.1627C27.6937 30.1347 27.6937 30.0786 27.7217 30.0225C27.7498 29.9944 27.7778 29.9663 27.834 29.9663H34.7644C34.8205 29.9663 34.8485 29.9944 34.8766 30.0225C34.9047 30.0505 34.9047 30.1066 34.8766 30.1627L31.4254 36.1672C31.3693 36.1953 31.3132 36.2234 31.2851 36.2234ZM28.0584 30.2189L31.2851 35.8025L34.5118 30.2189H28.0584Z" fill="url(#paint11_linear)"/>
<path d="M10.522 24.2424C10.4658 24.2424 10.4378 24.2144 10.4097 24.1863L6.95854 18.1818C6.93049 18.1538 6.93049 18.0976 6.95854 18.0415C6.9866 18.0135 7.01466 17.9854 7.07078 17.9854H14.0012C14.0573 17.9854 14.0854 18.0135 14.1134 18.0415C14.1415 18.0696 14.1415 18.1257 14.1134 18.1818L10.6342 24.1583C10.6061 24.2144 10.5781 24.2424 10.522 24.2424ZM7.29524 18.2379L10.522 23.8496L13.7487 18.2379H7.29524Z" fill="url(#paint12_linear)"/>
<path d="M10.5217 24.2424H3.59129C3.53517 24.2424 3.50711 24.2144 3.47905 24.1863C3.45099 24.1583 3.45099 24.1021 3.47905 24.046L6.95829 18.0415C6.98635 18.0135 7.01441 17.9854 7.07052 17.9854C7.12664 17.9854 7.1547 18.0135 7.18276 18.0415L10.6339 24.018C10.662 24.046 10.662 24.0741 10.662 24.1021C10.662 24.1863 10.6059 24.2424 10.5217 24.2424ZM3.81575 23.9618H10.2692L7.04246 18.3502L3.81575 23.9618Z" fill="url(#paint13_linear)"/>
<path d="M7.04246 30.2189C6.98635 30.2189 6.95829 30.1908 6.93023 30.1628L3.47905 24.1583C3.45099 24.1302 3.45099 24.0741 3.47905 24.018C3.50711 23.9899 3.53517 23.9619 3.59129 23.9619H10.5217C10.5778 23.9619 10.6059 23.9899 10.6339 24.018C10.662 24.046 10.662 24.1021 10.6339 24.1583L7.1547 30.1628C7.1547 30.1908 7.09858 30.2189 7.04246 30.2189ZM3.81575 24.2424L7.04246 29.8541L10.2692 24.2705L3.81575 24.2424Z" fill="url(#paint14_linear)"/>
<path d="M3.59129 36.2234C3.53517 36.2234 3.50712 36.1953 3.47906 36.1672L0.0278797 30.1627C-0.000178651 30.1347 -0.000178651 30.0786 0.0278797 30.0225C0.0559381 29.9944 0.0839964 29.9663 0.140113 29.9663H7.07053C7.12664 29.9663 7.1547 29.9944 7.18276 30.0225C7.21082 30.0505 7.21082 30.1066 7.18276 30.1627L3.70352 36.1672C3.67547 36.1953 3.64741 36.2234 3.59129 36.2234ZM0.36458 30.2189L3.59129 35.8305L6.818 30.2469L0.36458 30.2189Z" fill="url(#paint15_linear)"/>
<path d="M7.0427 30.2189H0.112281C0.0561644 30.2189 0.028106 30.1908 4.76763e-05 30.1628C-0.0280107 30.1347 -0.0280107 30.0786 4.76763e-05 30.0225L3.47928 24.018C3.50734 23.9899 3.5354 23.9619 3.59152 23.9619C3.64763 23.9619 3.67569 23.9899 3.70375 24.018L7.15493 30.0225C7.18299 30.0505 7.18299 30.0786 7.18299 30.1066C7.18299 30.1628 7.12687 30.2189 7.0427 30.2189ZM0.364806 29.9663H6.81823L3.59152 24.3547L0.364806 29.9663Z" fill="url(#paint16_linear)"/>
<path d="M14.0012 18.2379C13.9451 18.2379 13.917 18.2099 13.889 18.1818L10.4097 12.1773C10.3817 12.1493 10.3817 12.0932 10.4097 12.037C10.4378 12.009 10.4658 11.9809 10.5219 11.9809H17.4524C17.5085 11.9809 17.5365 12.009 17.5646 12.037C17.5927 12.0651 17.5927 12.1212 17.5646 12.1773L14.1134 18.1818C14.0854 18.2099 14.0292 18.2379 14.0012 18.2379ZM10.7745 12.2615L14.0012 17.8732L17.2279 12.2896L10.7745 12.2615Z" fill="url(#paint17_linear)"/>
<path d="M14.0012 18.2379H7.07078C7.01466 18.2379 6.9866 18.2099 6.95854 18.1818C6.93049 18.1538 6.93049 18.0976 6.95854 18.0415L10.4378 12.037C10.4658 12.009 10.4939 11.9809 10.55 11.9809C10.6061 11.9809 10.6342 12.009 10.6622 12.037L14.1134 18.0135C14.1415 18.0415 14.1415 18.0696 14.1415 18.0976C14.1134 18.1818 14.0573 18.2379 14.0012 18.2379ZM7.29524 17.9854H13.7487L10.522 12.3737L7.29524 17.9854Z" fill="url(#paint18_linear)"/>
<path d="M17.4521 12.2615C17.396 12.2615 17.368 12.2334 17.3399 12.2054L13.8887 6.20089C13.8607 6.17284 13.8607 6.11672 13.8887 6.0606C13.9168 6.03254 13.9448 6.00449 14.001 6.00449H20.9314C20.9875 6.00449 21.0155 6.03254 21.0436 6.0606C21.0717 6.08866 21.0717 6.14478 21.0436 6.20089L17.5644 12.1773C17.5363 12.2334 17.5082 12.2615 17.4521 12.2615ZM14.2254 6.25701L17.4521 11.8687L20.6788 6.28507L14.2254 6.25701Z" fill="url(#paint19_linear)"/>
<path d="M17.4524 12.2615H10.5219C10.4658 12.2615 10.4378 12.2334 10.4097 12.2054C10.3817 12.1773 10.3817 12.1212 10.4097 12.0651L13.889 6.0606C13.917 6.03254 13.9451 6.00449 14.0012 6.00449C14.0573 6.00449 14.0854 6.03254 14.1134 6.0606L17.5646 12.037C17.5927 12.0651 17.5927 12.0932 17.5927 12.1212C17.5927 12.2054 17.5365 12.2615 17.4524 12.2615ZM10.7745 11.9809H17.2279L14.0012 6.36925L10.7745 11.9809Z" fill="url(#paint20_linear)"/>
<path d="M20.9314 6.25701H14.001C13.9448 6.25701 13.9168 6.22896 13.8887 6.2009C13.8607 6.17284 13.8607 6.11672 13.8887 6.06061L17.3399 0.0561167C17.368 0.0280584 17.4241 0 17.4802 0C17.5363 0 17.5644 0.0280584 17.5924 0.0561167L21.0436 6.03255C21.0717 6.06061 21.0717 6.08866 21.0717 6.11672C21.0436 6.2009 20.9875 6.25701 20.9314 6.25701ZM14.2254 6.00449H20.6788L17.4521 0.392817L14.2254 6.00449Z" fill="url(#paint21_linear)"/>
<path d="M31.313 24.2424C31.2569 24.2424 31.2288 24.2144 31.2007 24.1863L27.7496 18.1818C27.7215 18.1538 27.7215 18.0976 27.7496 18.0415C27.7776 18.0135 27.8057 17.9854 27.8618 17.9854H34.7922C34.8483 17.9854 34.8764 18.0135 34.9044 18.0415C34.9325 18.0696 34.9325 18.1257 34.9044 18.1818L31.4252 24.1583C31.3971 24.2144 31.3691 24.2424 31.313 24.2424ZM28.0863 18.2379L31.313 23.8496L34.5397 18.2379H28.0863Z" fill="url(#paint22_linear)"/>
<path d="M31.313 24.2424C31.2568 24.2424 31.2288 24.2144 31.2007 24.1863C31.1727 24.1583 31.1727 24.1021 31.2007 24.046L34.6519 18.0415C34.68 18.0135 34.708 17.9854 34.7641 17.9854C34.8203 17.9854 34.8483 18.0135 34.8764 18.0415L38.3556 24.046C38.3837 24.0741 38.3837 24.1302 38.3556 24.1863C38.3276 24.2144 38.2995 24.2424 38.2434 24.2424H31.313ZM34.7641 18.3782L31.5374 23.9899H37.9909L34.7641 18.3782Z" fill="url(#paint23_linear)"/>
<path d="M34.7361 30.2189C34.68 30.2189 34.6519 30.1908 34.6239 30.1627L31.2007 24.1863C31.1727 24.1582 31.1727 24.1021 31.2007 24.046C31.2288 24.018 31.2568 23.9899 31.313 23.9899H38.2434C38.2995 23.9899 38.3276 24.018 38.3556 24.046C38.3837 24.0741 38.3837 24.1302 38.3556 24.1863L34.8483 30.1908C34.8203 30.1908 34.7922 30.2189 34.7361 30.2189ZM31.5374 24.2424L34.7361 29.826L38.0189 24.2424H31.5374Z" fill="url(#paint24_linear)"/>
<path d="M38.2436 36.2234C38.1875 36.2234 38.1594 36.1953 38.1314 36.1672L34.6241 30.1627C34.596 30.1347 34.596 30.0786 34.6241 30.0225C34.6521 29.9944 34.6802 29.9663 34.7363 29.9663H41.7228C41.779 29.9663 41.807 29.9944 41.8351 30.0225C41.8631 30.0505 41.8631 30.1066 41.8351 30.1627L38.3839 36.1672C38.3558 36.1953 38.2997 36.2234 38.2436 36.2234ZM34.9608 30.2189L38.2436 35.8305L41.4703 30.2189H34.9608Z" fill="url(#paint25_linear)"/>
<path d="M34.7363 30.2189C34.6802 30.2189 34.6521 30.1908 34.6241 30.1628C34.596 30.1347 34.596 30.0786 34.6241 30.0225L38.1314 24.018C38.1594 23.9899 38.1875 23.9619 38.2436 23.9619C38.2997 23.9619 38.3278 23.9899 38.3558 24.018L41.8351 30.0225C41.8631 30.0505 41.8631 30.1066 41.8351 30.1628C41.807 30.1908 41.779 30.2189 41.7228 30.2189H34.7363ZM38.2436 24.3547L34.9608 29.9383H41.4703L38.2436 24.3547Z" fill="url(#paint26_linear)"/>
<path d="M27.8615 18.2379C27.8054 18.2379 27.7774 18.2099 27.7493 18.1818L24.2701 12.1773C24.242 12.1493 24.242 12.0932 24.2701 12.037C24.2981 12.009 24.3262 11.9809 24.3823 11.9809H31.3127C31.3688 11.9809 31.3969 12.009 31.4249 12.037C31.453 12.0651 31.453 12.1212 31.4249 12.1773L27.9738 18.1818C27.9457 18.2099 27.8896 18.2379 27.8615 18.2379ZM24.6068 12.2615L27.8335 17.8451L31.0602 12.2335L24.6068 12.2615Z" fill="url(#paint27_linear)"/>
<path d="M27.8618 18.2379C27.8057 18.2379 27.7776 18.2099 27.7496 18.1818C27.7215 18.1538 27.7215 18.0976 27.7496 18.0415L31.2007 12.037C31.2288 12.009 31.2569 11.9809 31.313 11.9809C31.3691 11.9809 31.3971 12.009 31.4252 12.037L34.9044 18.0415C34.9325 18.0696 34.9325 18.1257 34.9044 18.1818C34.8764 18.2099 34.8483 18.2379 34.7922 18.2379H27.8618ZM31.313 12.3737L28.0863 17.9854H34.5397L31.313 12.3737Z" fill="url(#paint28_linear)"/>
<path d="M24.3825 12.2615C24.3264 12.2615 24.2984 12.2334 24.2703 12.2054L20.7911 6.20089C20.763 6.17284 20.763 6.11672 20.7911 6.0606C20.8191 6.03254 20.8472 6.00449 20.9033 6.00449H27.8337C27.8898 6.00449 27.9179 6.03254 27.9459 6.0606C27.974 6.08866 27.974 6.14478 27.9459 6.20089L24.4948 12.1773C24.4667 12.2334 24.4387 12.2615 24.3825 12.2615ZM21.1558 6.25701L24.3825 11.8406L27.6092 6.22895L21.1558 6.25701Z" fill="url(#paint29_linear)"/>
<path d="M24.3823 12.2615C24.3262 12.2615 24.2981 12.2334 24.2701 12.2054C24.242 12.1773 24.242 12.1212 24.2701 12.0651L27.7212 6.0606C27.7493 6.03254 27.7774 6.00449 27.8335 6.00449C27.8896 6.00449 27.9177 6.03254 27.9457 6.0606L31.4249 12.037C31.453 12.0651 31.453 12.1212 31.4249 12.1773C31.3969 12.2054 31.3688 12.2334 31.3127 12.2334L24.3823 12.2615ZM27.8335 6.3973L24.6068 12.009H31.0602L27.8335 6.3973Z" fill="url(#paint30_linear)"/>
<path d="M20.9311 6.25701C20.875 6.25701 20.847 6.22896 20.8189 6.2009C20.7908 6.17284 20.7908 6.11672 20.8189 6.06061L24.2701 0.0561167C24.2981 0.0280584 24.3262 0 24.3823 0C24.4384 0 24.4665 0.0280584 24.4945 0.0561167L27.9738 6.06061C28.0018 6.08866 28.0018 6.14478 27.9738 6.2009C27.9457 6.22896 27.9177 6.25701 27.8615 6.25701H20.9311ZM24.3823 0.392817L21.1556 6.00449H27.609L24.3823 0.392817Z" fill="url(#paint31_linear)"/>
<path d="M20.9314 6.25701C20.8752 6.25701 20.8472 6.22896 20.8191 6.2009L17.3399 0.196409C17.3118 0.16835 17.3118 0.112233 17.3399 0.0561167C17.3679 0.0280584 17.4241 0 17.4802 0H24.3825C24.4387 0 24.4667 0.0280584 24.4948 0.0561167C24.5228 0.0841751 24.5228 0.140292 24.4948 0.196409L21.0436 6.2009C21.0155 6.22896 20.9594 6.25701 20.9314 6.25701ZM17.7047 0.252525L20.9314 5.8642L24.1581 0.252525H17.7047Z" fill="url(#paint32_linear)"/>
</g>
<defs>
<linearGradient id="paint0_linear" x1="20.9231" y1="-0.309041" x2="20.9231" y2="36.5536" gradientUnits="userSpaceOnUse">
<stop stop-color="#29A6F6"/>
<stop offset="0.4892" stop-color="#6251D6"/>
<stop offset="0.9839" stop-color="#D104B3"/>
</linearGradient>
<linearGradient id="paint1_linear" x1="17.46" y1="-0.30887" x2="17.46" y2="36.5535" gradientUnits="userSpaceOnUse">
<stop stop-color="#29A6F6"/>
<stop offset="0.4892" stop-color="#6251D6"/>
<stop offset="0.9839" stop-color="#D104B3"/>
</linearGradient>
<linearGradient id="paint2_linear" x1="24.3815" y1="-0.30887" x2="24.3815" y2="36.5535" gradientUnits="userSpaceOnUse">
<stop stop-color="#29A6F6"/>
<stop offset="0.4892" stop-color="#6251D6"/>
<stop offset="0.9839" stop-color="#D104B3"/>
</linearGradient>
<linearGradient id="paint3_linear" x1="20.8954" y1="-0.309195" x2="20.8954" y2="36.5534" gradientUnits="userSpaceOnUse">
<stop stop-color="#29A6F6"/>
<stop offset="0.4892" stop-color="#6251D6"/>
<stop offset="0.9839" stop-color="#D104B3"/>
</linearGradient>
<linearGradient id="paint4_linear" x1="17.4326" y1="-0.308693" x2="17.4326" y2="36.5534" gradientUnits="userSpaceOnUse">
<stop stop-color="#29A6F6"/>
<stop offset="0.4892" stop-color="#6251D6"/>
<stop offset="0.9839" stop-color="#D104B3"/>
</linearGradient>
<linearGradient id="paint5_linear" x1="13.9731" y1="-0.309195" x2="13.9731" y2="36.5534" gradientUnits="userSpaceOnUse">
<stop stop-color="#29A6F6"/>
<stop offset="0.4892" stop-color="#6251D6"/>
<stop offset="0.9839" stop-color="#D104B3"/>
</linearGradient>
<linearGradient id="paint6_linear" x1="7.05029" y1="-0.309195" x2="7.05029" y2="36.5534" gradientUnits="userSpaceOnUse">
<stop stop-color="#29A6F6"/>
<stop offset="0.4892" stop-color="#6251D6"/>
<stop offset="0.9839" stop-color="#D104B3"/>
</linearGradient>
<linearGradient id="paint7_linear" x1="10.5101" y1="-0.308693" x2="10.5101" y2="36.5534" gradientUnits="userSpaceOnUse">
<stop stop-color="#29A6F6"/>
<stop offset="0.4892" stop-color="#6251D6"/>
<stop offset="0.9839" stop-color="#D104B3"/>
</linearGradient>
<linearGradient id="paint8_linear" x1="27.817" y1="-0.309195" x2="27.817" y2="36.5534" gradientUnits="userSpaceOnUse">
<stop stop-color="#29A6F6"/>
<stop offset="0.4892" stop-color="#6251D6"/>
<stop offset="0.9839" stop-color="#D104B3"/>
</linearGradient>
<linearGradient id="paint9_linear" x1="24.3544" y1="-0.308693" x2="24.3544" y2="36.5534" gradientUnits="userSpaceOnUse">
<stop stop-color="#29A6F6"/>
<stop offset="0.4892" stop-color="#6251D6"/>
<stop offset="0.9839" stop-color="#D104B3"/>
</linearGradient>
<linearGradient id="paint10_linear" x1="34.7668" y1="-0.308693" x2="34.7668" y2="36.5534" gradientUnits="userSpaceOnUse">
<stop stop-color="#29A6F6"/>
<stop offset="0.4892" stop-color="#6251D6"/>
<stop offset="0.9839" stop-color="#D104B3"/>
</linearGradient>
<linearGradient id="paint11_linear" x1="31.2765" y1="-0.308693" x2="31.2765" y2="36.5534" gradientUnits="userSpaceOnUse">
<stop stop-color="#29A6F6"/>
<stop offset="0.4892" stop-color="#6251D6"/>
<stop offset="0.9839" stop-color="#D104B3"/>
</linearGradient>
<linearGradient id="paint12_linear" x1="10.5277" y1="-0.30887" x2="10.5277" y2="36.5535" gradientUnits="userSpaceOnUse">
<stop stop-color="#29A6F6"/>
<stop offset="0.4892" stop-color="#6251D6"/>
<stop offset="0.9839" stop-color="#D104B3"/>
</linearGradient>
<linearGradient id="paint13_linear" x1="7.06213" y1="-0.308984" x2="7.06213" y2="36.5536" gradientUnits="userSpaceOnUse">
<stop stop-color="#29A6F6"/>
<stop offset="0.4892" stop-color="#6251D6"/>
<stop offset="0.9839" stop-color="#D104B3"/>
</linearGradient>
<linearGradient id="paint14_linear" x1="7.06039" y1="-0.308654" x2="7.06039" y2="36.5534" gradientUnits="userSpaceOnUse">
<stop stop-color="#29A6F6"/>
<stop offset="0.4892" stop-color="#6251D6"/>
<stop offset="0.9839" stop-color="#D104B3"/>
</linearGradient>
<linearGradient id="paint15_linear" x1="3.5937" y1="-0.308581" x2="3.5937" y2="36.5535" gradientUnits="userSpaceOnUse">
<stop stop-color="#29A6F6"/>
<stop offset="0.4892" stop-color="#6251D6"/>
<stop offset="0.9839" stop-color="#D104B3"/>
</linearGradient>
<linearGradient id="paint16_linear" x1="3.59556" y1="-0.308738" x2="3.59556" y2="36.5535" gradientUnits="userSpaceOnUse">
<stop stop-color="#29A6F6"/>
<stop offset="0.4892" stop-color="#6251D6"/>
<stop offset="0.9839" stop-color="#D104B3"/>
</linearGradient>
<linearGradient id="paint17_linear" x1="13.9947" y1="-0.308742" x2="13.9947" y2="36.5533" gradientUnits="userSpaceOnUse">
<stop stop-color="#29A6F6"/>
<stop offset="0.4892" stop-color="#6251D6"/>
<stop offset="0.9839" stop-color="#D104B3"/>
</linearGradient>
<linearGradient id="paint18_linear" x1="10.5291" y1="-0.308742" x2="10.5291" y2="36.5533" gradientUnits="userSpaceOnUse">
<stop stop-color="#29A6F6"/>
<stop offset="0.4892" stop-color="#6251D6"/>
<stop offset="0.9839" stop-color="#D104B3"/>
</linearGradient>
<linearGradient id="paint19_linear" x1="17.4609" y1="-0.308673" x2="17.4609" y2="36.5529" gradientUnits="userSpaceOnUse">
<stop stop-color="#29A6F6"/>
<stop offset="0.4892" stop-color="#6251D6"/>
<stop offset="0.9839" stop-color="#D104B3"/>
</linearGradient>
<linearGradient id="paint20_linear" x1="13.996" y1="-0.308673" x2="13.996" y2="36.5529" gradientUnits="userSpaceOnUse">
<stop stop-color="#29A6F6"/>
<stop offset="0.4892" stop-color="#6251D6"/>
<stop offset="0.9839" stop-color="#D104B3"/>
</linearGradient>
<linearGradient id="paint21_linear" x1="17.4622" y1="-0.308782" x2="17.4622" y2="36.5535" gradientUnits="userSpaceOnUse">
<stop stop-color="#29A6F6"/>
<stop offset="0.4892" stop-color="#6251D6"/>
<stop offset="0.9839" stop-color="#D104B3"/>
</linearGradient>
<linearGradient id="paint22_linear" x1="31.3143" y1="-0.30887" x2="31.3143" y2="36.5535" gradientUnits="userSpaceOnUse">
<stop stop-color="#29A6F6"/>
<stop offset="0.4892" stop-color="#6251D6"/>
<stop offset="0.9839" stop-color="#D104B3"/>
</linearGradient>
<linearGradient id="paint23_linear" x1="34.781" y1="-0.30887" x2="34.781" y2="36.5535" gradientUnits="userSpaceOnUse">
<stop stop-color="#29A6F6"/>
<stop offset="0.4892" stop-color="#6251D6"/>
<stop offset="0.9839" stop-color="#D104B3"/>
</linearGradient>
<linearGradient id="paint24_linear" x1="34.7811" y1="-0.308613" x2="34.7811" y2="36.5534" gradientUnits="userSpaceOnUse">
<stop stop-color="#29A6F6"/>
<stop offset="0.4892" stop-color="#6251D6"/>
<stop offset="0.9839" stop-color="#D104B3"/>
</linearGradient>
<linearGradient id="paint25_linear" x1="38.2234" y1="-0.308581" x2="38.2234" y2="36.5535" gradientUnits="userSpaceOnUse">
<stop stop-color="#29A6F6"/>
<stop offset="0.4892" stop-color="#6251D6"/>
<stop offset="0.9839" stop-color="#D104B3"/>
</linearGradient>
<linearGradient id="paint26_linear" x1="38.2233" y1="-0.308597" x2="38.2233" y2="36.5534" gradientUnits="userSpaceOnUse">
<stop stop-color="#29A6F6"/>
<stop offset="0.4892" stop-color="#6251D6"/>
<stop offset="0.9839" stop-color="#D104B3"/>
</linearGradient>
<linearGradient id="paint27_linear" x1="27.8471" y1="-0.308742" x2="27.8471" y2="36.5533" gradientUnits="userSpaceOnUse">
<stop stop-color="#29A6F6"/>
<stop offset="0.4892" stop-color="#6251D6"/>
<stop offset="0.9839" stop-color="#D104B3"/>
</linearGradient>
<linearGradient id="paint28_linear" x1="31.3143" y1="-0.308742" x2="31.3143" y2="36.5533" gradientUnits="userSpaceOnUse">
<stop stop-color="#29A6F6"/>
<stop offset="0.4892" stop-color="#6251D6"/>
<stop offset="0.9839" stop-color="#D104B3"/>
</linearGradient>
<linearGradient id="paint29_linear" x1="24.3808" y1="-0.308673" x2="24.3808" y2="36.5529" gradientUnits="userSpaceOnUse">
<stop stop-color="#29A6F6"/>
<stop offset="0.4892" stop-color="#6251D6"/>
<stop offset="0.9839" stop-color="#D104B3"/>
</linearGradient>
<linearGradient id="paint30_linear" x1="27.8471" y1="-0.308673" x2="27.8471" y2="36.5529" gradientUnits="userSpaceOnUse">
<stop stop-color="#29A6F6"/>
<stop offset="0.4892" stop-color="#6251D6"/>
<stop offset="0.9839" stop-color="#D104B3"/>
</linearGradient>
<linearGradient id="paint31_linear" x1="24.3805" y1="-0.308782" x2="24.3805" y2="36.553" gradientUnits="userSpaceOnUse">
<stop stop-color="#29A6F6"/>
<stop offset="0.4892" stop-color="#6251D6"/>
<stop offset="0.9839" stop-color="#D104B3"/>
</linearGradient>
<linearGradient id="paint32_linear" x1="20.921" y1="-0.308782" x2="20.921" y2="36.553" gradientUnits="userSpaceOnUse">
<stop stop-color="#29A6F6"/>
<stop offset="0.4892" stop-color="#6251D6"/>
<stop offset="0.9839" stop-color="#D104B3"/>
</linearGradient>
<clipPath id="clip0">
<rect width="200" height="36.2233" fill="white"/>
</clipPath>
</defs>
</svg>
